<svg width="63" height="52" viewBox="0 0 53 42" fill="none" xmlns="http://www.w3.org/2000/svg">
<g clip-path="url(#clip0_4_9)">
<path d="M5.60254 8.36519C5.34378 3.89156 8.75573 0 13.1199 0H48.0579C50.7873 0 53 2.27215 53 5.075V30.9701C53 35.3587 49.4354 38.8671 45.1626 38.7686C39.1673 38.6304 30.9046 38.5695 24.7106 39.025C13.737 39.8321 0.0852051 41.9125 0.0852051 41.9125C0.0852051 41.9125 2.92554 36.4571 4.94212 28.2625C6.15082 23.351 5.97378 14.7833 5.60254 8.36519Z" fill="#05FCB2"/>
<path d="M16.8714 19.425C19.2244 19.425 21.1318 17.4662 21.1318 15.05C21.1318 12.6337 19.2244 10.675 16.8714 10.675C14.5184 10.675 12.6109 12.6337 12.6109 15.05C12.6109 17.4662 14.5184 19.425 16.8714 19.425Z" fill="white"/>
<path d="M16.7862 17.5C17.9627 17.5 18.9164 16.5206 18.9164 15.3125C18.9164 14.1044 17.9627 13.125 16.7862 13.125C15.6097 13.125 14.6559 14.1044 14.6559 15.3125C14.6559 16.5206 15.6097 17.5 16.7862 17.5Z" fill="#252E4F"/>
<path d="M39.0257 19.425C41.3787 19.425 43.2862 17.4662 43.2862 15.05C43.2862 12.6337 41.3787 10.675 39.0257 10.675C36.6727 10.675 34.7653 12.6337 34.7653 15.05C34.7653 17.4662 36.6727 19.425 39.0257 19.425Z" fill="white"/>
<path d="M39.1109 17.5C40.2874 17.5 41.2412 16.5206 41.2412 15.3125C41.2412 14.1044 40.2874 13.125 39.1109 13.125C37.9344 13.125 36.9807 14.1044 36.9807 15.3125C36.9807 16.5206 37.9344 17.5 39.1109 17.5Z" fill="#252E4F"/>
<path d="M37.185 26.8746C37.5366 27.0584 37.6787 27.5015 37.4777 27.8501C36.6024 29.3661 35.3945 30.6558 33.9459 31.6136C32.2969 32.704 30.3954 33.3255 28.436 33.414C26.4763 33.5026 24.5291 33.0554 22.7931 32.118C21.2682 31.2946 19.9544 30.1189 18.9529 28.6878C18.7226 28.3586 18.8263 27.9045 19.1608 27.6898C19.4955 27.475 19.9341 27.5813 20.1674 27.9082C21.0328 29.12 22.1572 30.1168 23.458 30.8193C24.9702 31.6357 26.6663 32.0252 28.3731 31.948C30.0798 31.8709 31.7359 31.3298 33.1722 30.3799C34.4079 29.5628 35.4427 28.4685 36.2011 27.1831C36.4054 26.8365 36.8333 26.6909 37.185 26.8746Z" fill="#252E4F"/>
</g>
<defs>
<clipPath id="clip0_4_9">
<rect width="63" height="52" fill="white"/>
</clipPath>
</defs>
</svg>
